 <svg id="icon" xmlns="http://www.w3.org/2000/svg" width="25.552" height="22.713"
                            viewBox="0 0 25.552 22.713">
                            <path id="Icon_awesome-shopping-cart" data-name="Icon awesome-shopping-cart"
                                d="M23.428,13.367l2.1-9.227a1.065,1.065,0,0,0-1.038-1.3H7.063L6.656.851A1.065,1.065,0,0,0,5.613,0H1.065A1.065,1.065,0,0,0,0,1.065v.71A1.065,1.065,0,0,0,1.065,2.839h3.1L7.281,18.074a2.484,2.484,0,1,0,2.974.38h9.3a2.484,2.484,0,1,0,2.821-.462l.245-1.077a1.065,1.065,0,0,0-1.038-1.3H9.676l-.29-1.42h13A1.065,1.065,0,0,0,23.428,13.367Z"
                                fill="#dcdcdc" />
                        </svg>